<svg width="227" height="82" viewBox="0 0 227 82" fill="none" xmlns="http://www.w3.org/2000/svg">
<path d="M29.77 81.32C24.1233 81.32 19.1367 80.3667 14.81 78.46C10.4833 76.48 7.07333 73.6933 4.58 70.1C2.08667 66.4333 0.803334 61.9967 0.73 56.79H15.58C15.7267 60.3833 17.01 63.4267 19.43 65.92C21.9233 68.34 25.3333 69.55 29.66 69.55C33.4 69.55 36.37 68.67 38.57 66.91C40.77 65.0767 41.87 62.6567 41.87 59.65C41.87 56.4967 40.88 54.04 38.9 52.28C36.9933 50.52 34.4267 49.09 31.2 47.99C27.9733 46.89 24.5267 45.7167 20.86 44.47C14.92 42.4167 10.3733 39.7767 7.22 36.55C4.14 33.3233 2.6 29.0333 2.6 23.68C2.52667 19.1333 3.59 15.2467 5.79 12.02C8.06333 8.72 11.1433 6.19 15.03 4.43C18.9167 2.59666 23.39 1.68 28.45 1.68C33.5833 1.68 38.0933 2.59666 41.98 4.43C45.94 6.26333 49.02 8.82999 51.22 12.13C53.4933 15.43 54.7033 19.3533 54.85 23.9H39.78C39.7067 21.1867 38.6433 18.8033 36.59 16.75C34.61 14.6233 31.8233 13.56 28.23 13.56C25.15 13.4867 22.5467 14.2567 20.42 15.87C18.3667 17.41 17.34 19.6833 17.34 22.69C17.34 25.2567 18.1467 27.31 19.76 28.85C21.3733 30.3167 23.5733 31.5633 26.36 32.59C29.1467 33.6167 32.3367 34.7167 35.93 35.89C39.7433 37.21 43.2267 38.75 46.38 40.51C49.5333 42.27 52.0633 44.6167 53.97 47.55C55.8767 50.41 56.83 54.1133 56.83 58.66C56.83 62.6933 55.8033 66.4333 53.75 69.88C51.6967 73.3267 48.6533 76.1133 44.62 78.24C40.5867 80.2933 35.6367 81.32 29.77 81.32ZM78.1348 80L82.2048 60.75H66.3648V48.1H84.9548L88.3648 32.04H72.1948V19.39H91.1148L95.1848 0.469995H108.385L104.315 19.39H125.215L129.285 0.469995H142.485L138.525 19.39H152.825V32.04H135.775L132.365 48.1H146.995V60.75H129.615L125.545 80H112.235L116.415 60.75H95.5148L91.4448 80H78.1348ZM98.1548 48.1H119.055L122.575 32.04H101.675L98.1548 48.1ZM165.953 80V2.99999H180.033V34.13L208.523 2.99999H225.903L197.523 33.58L226.673 80H209.403L187.403 44.36L180.033 52.39V80H165.953Z" fill="url(#paint0_linear)"/>
<defs>
<linearGradient id="paint0_linear" x1="-1.39777" y1="95" x2="233.424" y2="95.9617" gradientUnits="userSpaceOnUse">
<stop offset="0.015625" stop-color="#006466"/>
<stop offset="0.216579" stop-color="#0B525B"/>
<stop offset="0.434313" stop-color="#212F45"/>
<stop offset="0.734973" stop-color="#312244"/>
<stop offset="1" stop-color="#4D194D"/>
</linearGradient>
</defs>
</svg>
